<svg width="25" height="25" viewBox="0 0 25 25" fill="none" xmlns="http://www.w3.org/2000/svg">
<mask id="mask0_1_81" style="mask-type:alpha" maskUnits="userSpaceOnUse" x="0" y="0" width="25" height="25">
<rect x="0.5" y="0.5" width="24" height="24" fill="#D9D9D9"/>
</mask>
<g mask="url(#mask0_1_81)">
<path d="M12.5 19.85C14.5333 17.9833 16.0417 16.2873 17.025 14.762C18.0083 13.2373 18.5 11.8833 18.5 10.7C18.5 8.88333 17.9207 7.39567 16.762 6.237C15.604 5.079 14.1833 4.5 12.5 4.5C10.8167 4.5 9.39567 5.079 8.237 6.237C7.079 7.39567 6.5 8.88333 6.5 10.7C6.5 11.8833 6.99167 13.2373 7.975 14.762C8.95833 16.2873 10.4667 17.9833 12.5 19.85ZM12.5 22.5C9.81667 20.2167 7.81267 18.0957 6.488 16.137C5.16267 14.179 4.5 12.3667 4.5 10.7C4.5 8.2 5.30433 6.20833 6.913 4.725C8.521 3.24167 10.3833 2.5 12.5 2.5C14.6167 2.5 16.479 3.24167 18.087 4.725C19.6957 6.20833 20.5 8.2 20.5 10.7C20.5 12.3667 19.8377 14.179 18.513 16.137C17.1877 18.0957 15.1833 20.2167 12.5 22.5ZM9.5 13.5H11.5V10.75H13.5V13.5H15.5V8.75L12.5 6.75L9.5 8.75V13.5Z" fill="#0181EC"/>
</g>
</svg>
