<svg width="25" height="25" viewBox="0 0 25 25" fill="none" xmlns="http://www.w3.org/2000/svg">
<mask id="mask0_1_87" style="mask-type:alpha" maskUnits="userSpaceOnUse" x="0" y="0" width="25" height="25">
<rect x="0.5" y="0.5" width="24" height="24" fill="#D9D9D9"/>
</mask>
<g mask="url(#mask0_1_87)">
<path d="M7.5 23.5C6.95 23.5 6.47933 23.3043 6.088 22.913C5.696 22.521 5.5 22.05 5.5 21.5V3.5C5.5 2.95 5.696 2.479 6.088 2.087C6.47933 1.69567 6.95 1.5 7.5 1.5H17.5C18.05 1.5 18.521 1.69567 18.913 2.087C19.3043 2.479 19.5 2.95 19.5 3.5V21.5C19.5 22.05 19.3043 22.521 18.913 22.913C18.521 23.3043 18.05 23.5 17.5 23.5H7.5ZM7.5 18.5V21.5H17.5V18.5H7.5ZM12.5 21C12.7833 21 13.021 20.904 13.213 20.712C13.4043 20.5207 13.5 20.2833 13.5 20C13.5 19.7167 13.4043 19.4793 13.213 19.288C13.021 19.096 12.7833 19 12.5 19C12.2167 19 11.9793 19.096 11.788 19.288C11.596 19.4793 11.5 19.7167 11.5 20C11.5 20.2833 11.596 20.5207 11.788 20.712C11.9793 20.904 12.2167 21 12.5 21ZM7.5 16.5H17.5V6.5H7.5V16.5ZM7.5 4.5H17.5V3.5H7.5V4.5Z" fill="#0181EC"/>
</g>
</svg>
