<svg width="40" height="40" viewBox="0 0 40 40" fill="none" xmlns="http://www.w3.org/2000/svg">
<g clip-path="url(#clip0_3_101)">
<path d="M20 33.3333C23.5363 33.3333 26.9277 31.9286 29.4281 29.4281C31.9286 26.9276 33.3334 23.5362 33.3334 20C33.3334 16.4638 31.9286 13.0724 29.4281 10.5719C26.9277 8.07142 23.5363 6.66666 20 6.66666C16.4638 6.66666 13.0724 8.07142 10.572 10.5719C8.07147 13.0724 6.66671 16.4638 6.66671 20C6.66671 23.5362 8.07147 26.9276 10.572 29.4281C13.0724 31.9286 16.4638 33.3333 20 33.3333ZM20 36.6667C10.795 36.6667 3.33337 29.205 3.33337 20C3.33337 10.795 10.795 3.33333 20 3.33333C29.205 3.33333 36.6667 10.795 36.6667 20C36.6667 29.205 29.205 36.6667 20 36.6667ZM14.8167 21.95L10.6534 20.6517C9.75338 20.3767 9.74838 19.7567 10.855 19.3117L27.0767 13.045C28.0184 12.6617 28.5517 13.1467 28.2467 14.3617L25.485 27.395C25.2917 28.3233 24.7334 28.545 23.9584 28.1167L19.7067 24.97L17.725 26.8833C17.5217 27.08 17.3567 27.2483 17.0434 27.29C16.7317 27.3333 16.475 27.24 16.2867 26.7233L14.8367 21.9383L14.8167 21.95Z" fill="black"/>
<path d="M20 33.3333C23.5363 33.3333 26.9277 31.9286 29.4281 29.4281C31.9286 26.9276 33.3334 23.5362 33.3334 20C33.3334 16.4638 31.9286 13.0724 29.4281 10.5719C26.9277 8.07142 23.5363 6.66666 20 6.66666C16.4638 6.66666 13.0724 8.07142 10.572 10.5719C8.07147 13.0724 6.66671 16.4638 6.66671 20C6.66671 23.5362 8.07147 26.9276 10.572 29.4281C13.0724 31.9286 16.4638 33.3333 20 33.3333ZM20 36.6667C10.795 36.6667 3.33337 29.205 3.33337 20C3.33337 10.795 10.795 3.33333 20 3.33333C29.205 3.33333 36.6667 10.795 36.6667 20C36.6667 29.205 29.205 36.6667 20 36.6667ZM14.8167 21.95L10.6534 20.6517C9.75338 20.3767 9.74838 19.7567 10.855 19.3117L27.0767 13.045C28.0184 12.6617 28.5517 13.1467 28.2467 14.3617L25.485 27.395C25.2917 28.3233 24.7334 28.545 23.9584 28.1167L19.7067 24.97L17.725 26.8833C17.5217 27.08 17.3567 27.2483 17.0434 27.29C16.7317 27.3333 16.475 27.24 16.2867 26.7233L14.8367 21.9383L14.8167 21.95Z" fill="#E6EFF6"/>
</g>
<defs>
<clipPath id="clip0_3_101">
<rect width="40" height="40" fill="white"/>
</clipPath>
</defs>
</svg>
