<svg width="40" height="40" viewBox="0 0 40 40" fill="none" xmlns="http://www.w3.org/2000/svg">
<g clip-path="url(#clip0_3_99)">
<path d="M34.6875 3.89844C33.6953 2.98437 29.6796 0.0703114 20.7265 0.0312489C20.7265 0.0312489 10.1718 -0.601564 5.03121 4.11719C2.17183 6.97656 1.16402 11.1719 1.05464 16.3672C0.945269 21.5625 0.812456 31.2969 10.1953 33.9375H10.2031L10.1953 37.9688C10.1953 37.9688 10.1328 39.6016 11.2109 39.9297C12.5078 40.3359 13.2734 39.0937 14.5156 37.7578C15.1953 37.0234 16.1328 35.9453 16.8437 35.125C23.2656 35.6641 28.1953 34.4297 28.7578 34.25C30.0546 33.8281 37.3906 32.8906 38.5781 23.1562C39.8125 13.1094 37.9843 6.76562 34.6875 3.89844ZM35.7734 22.4219C34.7656 30.5469 28.8203 31.0625 27.7265 31.4141C27.2578 31.5625 22.9218 32.6406 17.4765 32.2891C17.4765 32.2891 13.414 37.1875 12.1484 38.4609C11.7343 38.875 11.2812 38.8359 11.289 38.0156C11.289 37.4766 11.3203 31.3203 11.3203 31.3203C11.3125 31.3203 11.3125 31.3203 11.3203 31.3203C3.36714 29.1172 3.83589 20.8281 3.92183 16.4922C4.00777 12.1562 4.82808 8.60156 7.24996 6.21094C11.6015 2.26562 20.5625 2.85156 20.5625 2.85156C28.1328 2.88281 31.7578 5.16406 32.6015 5.92969C35.3906 8.32031 36.8125 14.0391 35.7734 22.4219ZM24.914 16.1094C24.9453 16.7812 23.9375 16.8281 23.9062 16.1562C23.8203 14.4375 23.0156 13.6016 21.3593 13.5078C20.6875 13.4687 20.75 12.4609 21.414 12.5C23.5937 12.6172 24.8046 13.8672 24.914 16.1094ZM26.5 16.9922C26.5781 13.6797 24.5078 11.0859 20.5781 10.7969C19.914 10.75 19.9843 9.74219 20.6484 9.78906C25.1796 10.1172 27.5937 13.2344 27.5078 17.0156C27.5 17.6875 26.4843 17.6562 26.5 16.9922ZM30.1718 18.0391C30.1796 18.7109 29.164 18.7188 29.164 18.0469C29.1171 11.6797 24.875 8.21094 19.7265 8.17187C19.0625 8.16406 19.0625 7.16406 19.7265 7.16406C25.4843 7.20312 30.1171 11.1797 30.1718 18.0391ZM29.289 25.7031V25.7188C28.4453 27.2031 26.8671 28.8437 25.2421 28.3203L25.2265 28.2969C23.5781 27.8359 19.6953 25.8359 17.2421 23.8828C15.9765 22.8828 14.8203 21.7031 13.9296 20.5703C13.125 19.5625 12.3125 18.3672 11.5234 16.9297C9.85933 13.9219 9.49214 12.5781 9.49214 12.5781C8.96871 10.9531 10.6015 9.375 12.0937 8.53125H12.1093C12.8281 8.15625 13.5156 8.28125 13.9765 8.83594C13.9765 8.83594 14.9453 9.99219 15.3593 10.5625C15.75 11.0937 16.2734 11.9453 16.5468 12.4219C17.0234 13.2734 16.7265 14.1406 16.2578 14.5L15.3203 15.25C14.8437 15.6328 14.9062 16.3438 14.9062 16.3438C14.9062 16.3438 16.2968 21.6016 21.4921 22.9297C21.4921 22.9297 22.2031 22.9922 22.5859 22.5156L23.3359 21.5781C23.6953 21.1094 24.5625 20.8125 25.414 21.2891C26.5625 21.9375 28.0234 22.9453 28.9921 23.8594C29.539 24.3047 29.664 24.9844 29.289 25.7031Z" fill="black"/>
<path d="M34.6875 3.89844C33.6953 2.98437 29.6796 0.0703114 20.7265 0.0312489C20.7265 0.0312489 10.1718 -0.601564 5.03121 4.11719C2.17183 6.97656 1.16402 11.1719 1.05464 16.3672C0.945269 21.5625 0.812456 31.2969 10.1953 33.9375H10.2031L10.1953 37.9688C10.1953 37.9688 10.1328 39.6016 11.2109 39.9297C12.5078 40.3359 13.2734 39.0937 14.5156 37.7578C15.1953 37.0234 16.1328 35.9453 16.8437 35.125C23.2656 35.6641 28.1953 34.4297 28.7578 34.25C30.0546 33.8281 37.3906 32.8906 38.5781 23.1562C39.8125 13.1094 37.9843 6.76562 34.6875 3.89844ZM35.7734 22.4219C34.7656 30.5469 28.8203 31.0625 27.7265 31.4141C27.2578 31.5625 22.9218 32.6406 17.4765 32.2891C17.4765 32.2891 13.414 37.1875 12.1484 38.4609C11.7343 38.875 11.2812 38.8359 11.289 38.0156C11.289 37.4766 11.3203 31.3203 11.3203 31.3203C11.3125 31.3203 11.3125 31.3203 11.3203 31.3203C3.36714 29.1172 3.83589 20.8281 3.92183 16.4922C4.00777 12.1562 4.82808 8.60156 7.24996 6.21094C11.6015 2.26562 20.5625 2.85156 20.5625 2.85156C28.1328 2.88281 31.7578 5.16406 32.6015 5.92969C35.3906 8.32031 36.8125 14.0391 35.7734 22.4219ZM24.914 16.1094C24.9453 16.7812 23.9375 16.8281 23.9062 16.1562C23.8203 14.4375 23.0156 13.6016 21.3593 13.5078C20.6875 13.4687 20.75 12.4609 21.414 12.5C23.5937 12.6172 24.8046 13.8672 24.914 16.1094ZM26.5 16.9922C26.5781 13.6797 24.5078 11.0859 20.5781 10.7969C19.914 10.75 19.9843 9.74219 20.6484 9.78906C25.1796 10.1172 27.5937 13.2344 27.5078 17.0156C27.5 17.6875 26.4843 17.6562 26.5 16.9922ZM30.1718 18.0391C30.1796 18.7109 29.164 18.7188 29.164 18.0469C29.1171 11.6797 24.875 8.21094 19.7265 8.17187C19.0625 8.16406 19.0625 7.16406 19.7265 7.16406C25.4843 7.20312 30.1171 11.1797 30.1718 18.0391ZM29.289 25.7031V25.7188C28.4453 27.2031 26.8671 28.8437 25.2421 28.3203L25.2265 28.2969C23.5781 27.8359 19.6953 25.8359 17.2421 23.8828C15.9765 22.8828 14.8203 21.7031 13.9296 20.5703C13.125 19.5625 12.3125 18.3672 11.5234 16.9297C9.85933 13.9219 9.49214 12.5781 9.49214 12.5781C8.96871 10.9531 10.6015 9.375 12.0937 8.53125H12.1093C12.8281 8.15625 13.5156 8.28125 13.9765 8.83594C13.9765 8.83594 14.9453 9.99219 15.3593 10.5625C15.75 11.0937 16.2734 11.9453 16.5468 12.4219C17.0234 13.2734 16.7265 14.1406 16.2578 14.5L15.3203 15.25C14.8437 15.6328 14.9062 16.3438 14.9062 16.3438C14.9062 16.3438 16.2968 21.6016 21.4921 22.9297C21.4921 22.9297 22.2031 22.9922 22.5859 22.5156L23.3359 21.5781C23.6953 21.1094 24.5625 20.8125 25.414 21.2891C26.5625 21.9375 28.0234 22.9453 28.9921 23.8594C29.539 24.3047 29.664 24.9844 29.289 25.7031Z" fill="#E6EFF6"/>
</g>
<defs>
<clipPath id="clip0_3_99">
<rect width="40" height="40" fill="white"/>
</clipPath>
</defs>
</svg>
