<svg width="32" height="57" viewBox="0 0 32 57" fill="none" xmlns="http://www.w3.org/2000/svg">
<path d="M22.9594 51.8716C23.0569 53.7927 23.9136 56.1948 23.6215 56.1948H17.1562V47.8016C17.2643 47.3338 17.3612 47.1123 17.6041 46.789L20.5641 43.9264L24.381 39.389C24.381 39.389 25.0625 38.8632 25.4715 39.0775C25.8804 39.2917 25.4715 40.2653 25.4715 40.2653L23.8162 43.0695C23.7328 43.3699 23.6604 43.5564 23.8162 43.7901C23.972 44.0238 24.47 43.9888 24.8873 43.9264L27.7304 41.278L27.8473 40.6743L27.7304 36.9548L26.932 35.358C26.932 35.358 26.7762 34.3259 26.932 33.9559C27.0878 33.5859 27.8473 34.3259 27.8473 34.3259C29.2697 35.9343 29.7139 37.1036 30.2425 39.389V42.8164C28.0728 45.6577 26.4192 46.9709 23.3294 49.2232C22.7797 49.3004 22.8307 50.1921 22.9594 51.8716Z" fill="white" stroke="white"/>
<path d="M7.28314 51.8572C7.18567 53.7761 6.32893 56.1754 6.62104 56.1754H13.0863V47.7919C12.9782 47.3246 12.8813 47.1034 12.6384 46.7805L9.67839 43.9211L5.86157 39.389C5.86157 39.389 5.17999 38.8638 4.77104 39.0778C4.3621 39.2918 4.77104 40.2643 4.77104 40.2643L6.4263 43.0653C6.50973 43.3653 6.58209 43.5516 6.4263 43.785C6.27051 44.0184 5.77249 43.9834 5.35525 43.9211L2.5121 41.2758L2.39526 40.6728L2.5121 36.9576L3.31052 35.3626C3.31052 35.3626 3.46631 34.3317 3.31052 33.9621C3.15473 33.5926 2.39526 34.3317 2.39526 34.3317C0.972872 35.9383 0.52865 37.1062 9.53674e-06 39.389V42.8124C2.16971 45.6504 3.82329 46.9622 6.91314 49.2119C7.46286 49.289 7.4118 50.1796 7.28314 51.8572Z" fill="white" stroke="white"/>
<path d="M25.2573 31.8985C23.2246 33.2705 21.8273 33.7209 19.0063 34.1184C19.4201 32.0794 19.9059 30.9839 20.7005 29.0164V27.1469C20.763 25.502 20.6988 24.5952 20.4473 22.999L18.8699 19.4548L15.6957 16.4559L16.572 18.5785L16.8447 20.3701C16.9297 21.4255 16.7386 21.9999 16.0463 22.999C15.196 24.361 14.3385 24.9744 12.4826 25.9395C11.007 26.2319 10.0736 26.2856 7.98419 25.9395C7.41542 25.8312 7.03739 25.5413 6.87419 24.5569L6.65998 22.8432C6.30783 22.6816 6.14196 22.7049 5.91999 22.999L5.04367 25.5111V27.7506L5.62788 30.2821C5.75792 31.0046 5.74232 31.4097 5.62788 32.1321L5.62585 32.1327C5.22468 32.2345 4.99919 32.2917 4.2842 32.0153L4.2224 31.9436C3.05392 30.5889 2.37997 29.8076 1.61632 27.9648C1.45041 26.5848 1.36002 25.8101 1.73316 24.2259L5.54999 17.8969C5.70255 16.5362 5.81926 15.7707 5.25788 14.4696L2.33684 10.0101C3.69151 9.24318 4.88848 10.0254 7.14682 11.7627C8.28985 12.8045 8.83726 13.4566 9.48365 14.859C9.8856 15.6948 9.96939 16.1804 10.0094 17.0596C10.0078 18.4007 9.83902 19.1129 9.48365 20.3701C9.4497 20.9681 9.6035 21.2614 10.0094 21.7527H11.9179C12.6268 21.0779 13.007 20.6905 13.2421 19.7664C13.4567 18.6379 13.5065 17.9911 13.2421 16.7675C11.8286 14.7253 11.1604 13.4902 10.2821 11.0617C9.98967 9.74989 9.94536 9.05016 10.2821 7.92644C11.113 5.40706 11.5998 4.00833 13.9042 2.45435C15.6623 1.32207 16.7786 0.34774 17.8378 1.03278C15.9445 3.3685 15.0242 4.1944 14.2157 6.91381C13.9178 7.76611 13.9229 8.39249 14.2157 9.75696C14.6521 11.2916 15.215 11.7886 16.5915 12.2496C17.9647 12.4049 18.5101 12.7226 19.0452 13.7296L19.201 14.4696C19.7672 14.6315 19.9561 14.5841 20.1747 14.3722C20.1747 14.3722 20.8562 13.0285 21.1483 12.7948C21.4405 12.5612 22.6279 11.6563 23.271 11.8991C23.4451 12.4097 23.3832 12.6392 23.271 13.048C22.554 13.6086 22.2338 14.0295 22.0052 15.229C21.8931 16.8428 21.8905 17.6725 22.0052 19.0069C22.434 19.9977 22.6804 20.4441 23.0957 20.3701C23.511 20.2961 23.8822 19.7431 24.2057 19.0069C24.2656 17.8932 24.2876 17.2831 24.4783 16.008C25.0711 16.4797 25.2577 16.8353 25.5299 17.5075C25.8659 18.6956 25.9179 19.3211 25.7831 20.3701C25.1033 21.7762 24.4783 24.8101 24.5173 25.1022C24.5562 25.3943 24.7413 26.5765 25.2573 27.439C26.0681 27.7432 26.5227 27.6817 27.2436 27.1469L30.7683 24.5569C30.8014 25.051 30.7433 25.3232 30.5541 25.8032C29.0928 28.4091 27.8244 29.7033 25.2573 31.8985Z" fill="white" stroke="white"/>
</svg>
